# AST/ASF file generated using VICON BodyLanguage
# -----------------------------------------------
:version 1.10
:name VICON
:units
  mass 1.0
  length 0.45
  angle deg
:documentation
   .ast/.asf automatically generated from VICON data using
   VICON BodyBuilder and BodyLanguage model FoxedUp or BRILLIANT.MOD
:root
   order TX TY TZ RX RY RZ
   axis XYZ
   position 0 0 0  
   orientation 0 0 0 
:bonedata
  begin
     id 1 
     name lhipjoint
     direction 0.822369 -0.411937 0.392449 
     length 3.8167 
     axis 0 0 0  XYZ
  end
  begin
     id 2 
     name lfemur
     direction 0.34202 -0.939693 0  
     length 6.16791  
     axis 0 0 20  XYZ
    dof rx ry rz
    limits (-160.0 20.0)
           (-70.0 70.0)
           (-60.0 70.0)
  end
  begin
     id 3 
     name ltibia
     direction 0.34202 -0.939693 0   
     length 7.07101   
     axis 0 0 20   XYZ
    dof rx
    limits (-10.0 170.0)
  end
  begin
     id 4 
     name lfoot
     direction 0.028254 -0.0776273 0.996582   
     length 1.66799   
     axis -90 7.62852e-016 20   XYZ
    dof rx rz
    limits (-45.0 90.0)
           (-70.0 20.0)
  end
  begin
     id 5 
     name ltoes
     direction 1.53483e-011 -4.21688e-011 1   
     length 0.851674   
     axis -90 7.62852e-016 20   XYZ
    dof rx
    limits (-90.0 20.0)
  end
  begin
     id 6 
     name rhipjoint
     direction -0.822466 -0.411836 0.392353   
     length 3.81764  
     axis 0 0 0  XYZ 
  end
  begin
     id 7 
     name rfemur
     direction -0.34202 -0.939693 0   
     length 6.28636   
     axis 0 0 -20   XYZ
    dof rx ry rz
    limits (-160.0 20.0)
           (-70.0 70.0)
           (-70.0 60.0)
  end
  begin
     id 8 
     name rtibia
     direction -0.34202 -0.939693 0   
     length 6.85621   
     axis 0 0 -20   XYZ
    dof rx
    limits (-10.0 170.0)
 end
 begin
     id 9 
     name rfoot
     direction -0.0553036 -0.151945 0.98684   
     length 1.57293  
     axis -90 -7.62852e-016 -20   XYZ
    dof rx rz
    limits (-45.0 90.0)
           (-20.0 70.0)
  end
  begin
     id 10 
     name rtoes
     direction -1.53592e-011 -4.21964e-011 1   
     length 0.802812   
     axis -90 -7.62852e-016 -20   XYZ
    dof rx
    limits (-90.0 20.0)
  end
  begin
     id 11 
     name lowerback
     direction 0.00654913 0.996475 -0.0836396   
     length 1.97212   
     axis 0 0 0   XYZ
    dof rx ry rz
    limits (-20.0 45.0)
           (-30.0 30.0)
           (-30.0 30.0)
  end
  begin
     id 12 
     name upperback
     direction 0.0111875 0.994527 0.103877   
     length 1.89704   
     axis 0 0 0   XYZ
    dof rx ry rz
    limits (-20.0 45.0)
           (-30.0 30.0)
           (-30.0 30.0)
  end
  begin
     id 13 
     name thorax
     direction 0.00473652 0.989004 0.147814   
     length 1.94516   
     axis 0 0 0   XYZ
    dof rx ry rz
    limits (-20.0 45.0)
           (-30.0 30.0)
           (-30.0 30.0)
  end
  begin
     id 14 
     name lowerneck
     direction -0.00925808 0.999011 0.0434791   
     length 1.81771   
     axis 0 0 0   XYZ
    dof rx ry rz
    limits (-20.0 45.0)
           (-30.0 30.0)
           (-30.0 30.0)
  end
  begin
     id 15 
     name upperneck
     direction 0.00451595 0.964412 -0.264365   
     length 1.80434   
     axis 0 0 0   XYZ
    dof rx ry rz
    limits (-20.0 45.0)
           (-30.0 30.0)
           (-30.0 30.0)
  end
  begin
     id 16
     name head
     direction -0.00110849 0.995756 -0.0920241  
     length 1.84006  
     axis 0 0 0   XYZ
    dof rx ry rz
    limits (-20.0 45.0)
           (-30.0 30.0)
           (-30.0 30.0)
  end
  begin
     id 17 
     name lclavicle
     direction 0.921253 0.385213 0.0538957  
     length 3.67415  
     axis 0 0 0   XYZ
    dof ry rz
    limits (-20.0 10.0)
           (0.0 20.0)
  end
  begin
     id 18 
     name lhumerus
     direction 1 -4.48961e-011 6.73441e-028   
     length 4.32712   
     axis 180 -30 -90   XYZ
    dof rx ry rz
    limits (-60.0 90.0)
           (-90.0 90.0)
           (-90.0 90.0)
  end
  begin
     id 19
     name lradius
     direction 1 -4.48985e-011 -9.53507e-028   
     length 3.28587   
     axis 180 -30 -90   XYZ
    dof rx
    limits (-10.0 170.0)
  end
  begin
     id 20
     name lwrist
     direction 1 -4.48951e-011 -4.67472e-027   
     length 1.64293   
     axis 1.65735e-015 90 90   XYZ
    dof ry
    limits (-180.0 0.0)
 end
  begin
     id 21 
     name lhand
     direction 1 -4.48946e-011 -9.34945e-027   
     length 0.433158   
     axis 5.96574e-015 90 90   XYZ
    dof rx rz
    limits (-90.0 90.0)
           (-45.0 45.0)
  end
  begin
     id 22 
     name lfingers
     direction 1 -4.48882e-011 -1.86989e-026   
     length 0.349224   
     axis 1.19315e-014 90 90   XYZ
    dof rx
    limits (0.0 90.0)
  end
  begin
     id 23
     name lthumb
     direction 0.707107 -6.3493e-011 0.707107   
     length 0.501417   
     axis -90 45 2.85299e-015   XYZ
    dof rx rz
    limits (-45.0 45.0)
           (-45.0 45.0)
  end
  begin
     id 24 
     name rclavicle
     direction -0.884378 0.46502 -0.0403866   
     length 3.50218  
     axis 0 0 0   XYZ 
    dof ry rz
    limits (-10.0 20.0)
           (-20.0 0.0)
  end
  begin
     id 25 
     name rhumerus
     direction -1 -4.48964e-011 1.58188e-027  
     length 4.29104   
     axis 180 30 90   XYZ
    dof rx ry rz
    limits (-90.0 60.0)
           (-90.0 90.0)
           (-90.0 90.0)
  end
  begin
     id 26 
     name rradius
     direction -1 -4.48978e-011 -1.9722e-027   
     length 3.2272   
     axis 180 30 90   XYZ
    dof rx
    limits (-10.0 170.0)
  end
  begin
     id 27 
     name rwrist
     direction -1 -4.48969e-011 -4.67472e-027   
     length 1.6136   
     axis 1.65735e-015 -90 -90   XYZ
    dof ry
    limits (-180.0 0.0)
  end
  begin
     id 28
     name rhand
     direction -1 -4.48846e-011 -9.34945e-027   
     length 0.543623   
     axis 5.96574e-015 -90 -90   XYZ
    dof rx rz
    limits (-90.0 90.0)
           (-45.0 45.0)
  end
  begin
     id 29
     name rfingers
     direction -1 -4.49074e-011 -1.86989e-026   
     length 0.438283   
     axis 1.19315e-014 -90 -90   XYZ
    dof rx
    limits (0.0 90.0)
  end
  begin
     id 30
     name rthumb
     direction -0.707107 -6.34834e-011 0.707107   
     length 0.629289   
     axis -90 -45 -2.85299e-015   XYZ
    dof rx rz
    limits (-45.0 45.0)
           (-45.0 45.0)
  end
:hierarchy
  begin
    root lhipjoint rhipjoint lowerback
    lhipjoint lfemur
    lfemur ltibia
    ltibia lfoot
    lfoot ltoes
    rhipjoint rfemur
    rfemur rtibia
    rtibia rfoot
    rfoot rtoes
    lowerback upperback
    upperback thorax
    thorax lowerneck lclavicle rclavicle
    lowerneck upperneck
    upperneck head
    lclavicle lhumerus
    lhumerus lradius
    lradius lwrist
    lwrist lhand lthumb
    lhand lfingers
    rclavicle rhumerus
    rhumerus rradius
    rradius rwrist
    rwrist rhand rthumb
    rhand rfingers
  end

#!OML:ASF H:\GeneralSubjects\Female5\Project 1\Capture day 1\Session 1\Female5.ASF
:FULLY-SPECIFIED
:DEGREES
86
root -31.3931 18.3617 5.3687 -54.2629 86.6492 -64.3982
lowerback 8.67543 0.853385 2.91258
upperback -9.66022 2.09756 1.42111
thorax -15.6323 0.865727 -0.525677
lowerneck -11.993 1.9533 0.903606
upperneck 46.3215 5.12803 2.66605
head 20.1416 3.56114 2.56402
rclavicle -1.09332e-014 -4.17448e-015
rhumerus -41.3364 27.7623 -78.9407
rradius 78.7581
rwrist -1.6993
rhand -27.9008 -16.3835
rfingers 7.12502
rthumb -1.2901 -46.3594
lclavicle -1.09332e-014 -4.17448e-015
lhumerus -27.3433 -14.5898 69.7006
lradius 77.668
lwrist -5.27824
lhand -32.7669 33.2276
lfingers 7.12502
lthumb -5.98917 63.1229
rfemur -6.38719 4.95746 33.3335
rtibia 23.6393
rfoot 15.0215 -28.1318
rtoes -16.569
lfemur -12.2112 -12.2582 -24.1608
ltibia 32.8682
lfoot -11.839 21.1513
ltoes -34.0895
87
root -31.1901 18.4615 5.37554 -52.0278 86.81 -62.0752
lowerback 9.35628 0.801694 2.56881
upperback -9.30626 1.94395 1.34227
thorax -15.6466 0.81382 -0.398086
lowerneck -12.5789 2.05575 0.889227
upperneck 46.2066 5.20665 2.68881
head 20.2318 3.5576 2.60241
rclavicle 3.2054e-015 1.35174e-014
rhumerus -42.2994 27.6018 -81.255
rradius 71.9981
rwrist -1.29596
rhand -26.3778 -17.6559
rfingers 7.12502
rthumb 0.180842 -47.6355
lclavicle 3.2054e-015 1.35174e-014
lhumerus -28.5379 -13.3298 70.8445
lradius 71.2067
lwrist -6.5188
lhand -32.398 33.365
lfingers 7.12502
lthumb -5.63297 63.2701
rfemur -7.48702 5.67041 33.3561
rtibia 21.3802
rfoot 12.2876 -28.1218
rtoes -15.6284
lfemur -13.557 -12.4971 -23.9362
ltibia 30.8295
lfoot -14.2671 18.2363
ltoes -34.2595
88
root -30.9939 18.5057 5.38232 -49.498 87.0111 -59.6441
lowerback 10.1135 0.76465 2.18349
upperback -9.03043 1.81113 1.26904
thorax -15.8071 0.776632 -0.245498
lowerneck -13.2933 2.11125 0.803062
upperneck 46.0243 5.23082 2.66007
head 20.3142 3.50729 2.61668
rclavicle -7.55382e-015 -2.78299e-015
rhumerus -43.2192 27.1302 -83.3226
rradius 65.3735
rwrist -0.699397
rhand -24.9126 -18.653
rfingers 7.12502
rthumb 1.59594 -48.6268
lclavicle -7.55382e-015 -2.78299e-015
lhumerus -29.8273 -12.2114 72.1
lradius 64.624
lwrist -7.7278
lhand -32.0351 33.522
lfingers 7.12502
lthumb -5.28258 63.4362
rfemur -8.49895 7.07378 33.2528
rtibia 17.6808
rfoot 9.57434 -28.1305
rtoes -14.2877
lfemur -14.7956 -13.1375 -23.6386
ltibia 27.2554
lfoot -16.6321 15.9978
ltoes -34.7174
89
root -30.7964 18.4976 5.38779 -46.7072 87.2357 -57.136
lowerback 10.7941 0.741519 1.7909
upperback -8.8585 1.6986 1.19556
thorax -16.0452 0.752325 -0.0912003
lowerneck -14.0198 2.11907 0.687557
upperneck 45.7734 5.19219 2.58932
head 20.3544 3.42131 2.59733
rclavicle -5.62809e-015 2.98177e-015
rhumerus -44.2791 26.4341 -85.1218
rradius 59.2728
rwrist 0.0485587
rhand -23.8059 -19.3608
rfingers 7.12502
rthumb 2.66482 -49.3239
lclavicle -5.62809e-015 2.98177e-015
lhumerus -31.2854 -11.2592 73.3896
lradius 58.2271
lwrist -8.98915
lhand -31.4966 33.4412
lfingers 7.12502
lthumb -4.76269 63.3677
rfemur -9.43426 9.33838 32.9401
rtibia 12.8348
rfoot 6.57437 -28.6934
rtoes -12.2831
lfemur -15.9259 -14.2764 -23.2062
ltibia 22.4242
lfoot -18.8202 14.8799
ltoes -35.409
90
root -30.5909 18.4418 5.39023 -44.5713 87.436 -55.4572
lowerback 11.2631 0.721865 1.48298
upperback -8.80159 1.6083 1.12893
thorax -16.2858 0.733871 0.0218514
lowerneck -14.6691 2.09525 0.586148
upperneck 45.4499 5.10105 2.49266
head 20.3237 3.31734 2.54284
rclavicle -2.70844e-015 -7.55382e-015
rhumerus -45.6632 25.657 -86.6887
rradius 54.0447
rwrist 0.811797
rhand -22.9791 -19.8211
rfingers 7.12502
rthumb 3.46324 -49.7728
lclavicle -2.70844e-015 -7.55382e-015
lhumerus -32.9679 -10.4938 74.6689
lradius 52.2367
lwrist -10.3278
lhand -30.8476 32.909
lfingers 7.12502
lthumb -4.13594 62.8486
rfemur -10.3497 12.7832 32.3288
rtibia 7.3794
rfoot 2.55866 -30.5772
rtoes -7.11328
lfemur -17.0588 -15.9975 -22.4936
ltibia 17.0181
lfoot -20.8204 14.9234
ltoes -35.8738
91
root -30.3734 18.3401 5.38807 -43.2351 87.6282 -54.7237
lowerback 11.423 0.696893 1.27066
upperback -8.8501 1.52888 1.0582
thorax -16.4533 0.71435 0.0782706
lowerneck -15.2018 2.0644 0.533079
upperneck 45.0642 4.98221 2.38808
head 20.218 3.21509 2.46112
rclavicle 1.86361e-017 -1.27222e-014
rhumerus -47.4923 24.9482 -88.1101
rradius 49.8937
rwrist 1.40635
rhand -22.3645 -19.8597
rfingers 7.12502
rthumb 4.05675 -49.8008
lclavicle 1.86361e-017 -1.27222e-014
lhumerus -34.8685 -9.86214 75.8922
lradius 46.8027
lwrist -11.8098
lhand -30.0374 31.8581
lfingers 7.12502
lthumb -3.35355 61.8114
rfemur -11.3934 17.9725 31.1454
rtibia 2.07827
rfoot -4.51653 -34.0203
rtoes 2.38747
lfemur -18.3779 -18.3008 -21.4397
ltibia 11.8224
lfoot -22.8918 15.9652
ltoes -36.4656
92
root -30.1427 18.1929 5.38008 -43.1411 87.8025 -55.347
lowerback 11.2292 0.660395 1.18495
upperback -8.99014 1.45935 0.986368
thorax -16.5007 0.689785 0.0640064
lowerneck -15.6235 2.04788 0.528242
upperneck 44.6346 4.86599 2.29337
head 20.0524 3.1284 2.36995
rclavicle -5.85794e-015 -1.03368e-014
rhumerus -49.7739 24.3926 -89.4491
rradius 46.9373
rwrist 1.61868
rhand -21.6574 -19.5403
rfingers 7.12502
rthumb 4.73956 -49.4673
lclavicle -5.85794e-015 -1.03368e-014
lhumerus -36.9468 -9.30113 77.0181
lradius 41.9958
lwrist -13.4008
lhand -29.1941 30.2258
lfingers 7.12502
lthumb -2.53915 60.1905
rfemur -12.9152 25.656 28.9457
rtibia -2.09035
rfoot -18.2102 -37.4906
rtoes 15.885
lfemur -20.1276 -20.8468 -20.0231
ltibia 7.79118
lfoot -24.9952 17.4709
ltoes -37.1224
93
root -29.9008 17.9972 5.36536 -45.81 87.8934 -58.7569
lowerback 10.7642 0.60985 1.31724
upperback -9.19899 1.41727 0.935731
thorax -16.4522 0.658313 -0.0527882
lowerneck -15.9702 2.04744 0.550611
upperneck 44.2059 4.77104 2.2072
head 19.8685 3.05998 2.28166
rclavicle 1.92573e-015 3.57812e-015
rhumerus -52.4254 23.9813 -90.7273
rradius 45.0817
rwrist 1.47135
rhand -20.6353 -18.8609
rfingers 7.12502
rthumb 5.72646 -48.7635
lclavicle 1.92573e-015 3.57812e-015
lhumerus -39.1109 -8.68906 77.9915
lradius 37.7851
lwrist -15.0531
lhand -28.4416 28.4402
lfingers 7.12502
lthumb -1.81237 58.4122
rfemur -14.8708 23.6052 28.7247
rtibia -4.43751
rfoot -15.6617 -37.2427
rtoes 15.6293
lfemur -22.3682 -22.5979 -18.4608
ltibia 5.57642
lfoot -26.2908 19.0568
ltoes -37.871
94
root -29.6513 17.7486 5.34351 -50.1676 87.9062 -63.7568
lowerback 10.1399 0.556874 1.62393
upperback -9.44242 1.40579 0.900675
thorax -16.3396 0.624409 -0.255552
lowerneck -16.2621 2.05327 0.565694
upperneck 43.8411 4.70227 2.1384
head 19.7132 3.00768 2.21324
rclavicle 2.67117e-016 -7.15625e-015
rhumerus -55.2476 23.6016 -91.8658
rradius 44.1137
rwrist 1.05039
rhand -19.3067 -18.0454
rfingers 7.12502
rthumb 7.00911 -47.9094
lclavicle 2.67117e-016 -7.15625e-015
lhumerus -41.2701 -7.92546 78.7468
lradius 34.1007
lwrist -16.8003
lhand -28.0066 26.626
lfingers 7.12502
lthumb -1.39231 56.6012
rfemur -17.0577 21.4613 28.5209
rtibia -4.92531
rfoot -11.7084 -36.9815
rtoes 14.0442
lfemur -24.8521 -22.1709 -17.5572
ltibia 5.5434
lfoot -25.1125 19.7874
ltoes -38.0872
95
root -29.3987 17.4439 5.31508 -55.7759 87.7758 -69.7747
lowerback 9.52129 0.508204 2.14601
upperback -9.6974 1.44067 0.893768
thorax -16.2421 0.589726 -0.557987
lowerneck -16.4951 2.04901 0.556096
upperneck 43.6279 4.65428 2.0936
head 19.6415 2.96972 2.17563
rclavicle -7.57867e-016 -7.15625e-015
rhumerus -58.0181 23.115 -92.7606
rradius 43.6899
rwrist 0.564263
rhand -17.9492 -17.247
rfingers 7.12502
rthumb 8.31937 -47.0632
lclavicle -7.57867e-016 -7.15625e-015
lhumerus -43.4378 -6.99257 79.2231
lradius 31.0429
lwrist -18.5438
lhand -27.6729 25.3392
lfingers 7.12502
lthumb -1.06995 55.3163
rfemur -19.351 19.2248 28.4718
rtibia -3.34463
rfoot -6.56376 -35.6019
rtoes 9.7667
lfemur -27.2937 -19.4303 -17.7207
ltibia 7.76521
lfoot -21.1978 19.0542
ltoes -37.4805
96
root -29.1468 17.0824 5.28135 -60.1722 87.5365 -74.1753
lowerback 9.09185 0.476891 2.79184
upperback -9.9124 1.51947 0.901606
thorax -16.2169 0.559321 -0.924628
lowerneck -16.6614 2.01749 0.549844
upperneck 43.6339 4.62071 2.0309
head 19.6975 2.9442 2.14593
rclavicle -2.42269e-015 6.36111e-015
rhumerus -60.4851 22.4178 -93.2968
rradius 43.4396
rwrist 0.0366823
rhand -16.8832 -16.6851
rfingers 7.12502
rthumb 9.34806 -46.4579
lclavicle -2.42269e-015 6.36111e-015
lhumerus -45.5496 -5.75461 79.2976
lradius 28.5704
lwrist -20.4267
lhand -27.5973 24.737
lfingers 7.12502
lthumb -0.996936 54.7145
rfemur -21.4957 16.979 28.6433
rtibia 0.152843
rfoot -2.09986 -32.3738
rtoes 3.08284
lfemur -29.4772 -15.8813 -18.6482
ltibia 11.8199
lfoot -16.6661 16.4485
ltoes -35.6555
97
root -28.8943 16.6696 5.24353 -61.3596 87.2567 -74.7473
lowerback 9.04084 0.479193 3.43645
upperback -9.99411 1.63983 0.903273
thorax -16.2719 0.540832 -1.31094
lowerneck -16.7926 1.95929 0.592297
upperneck 43.8811 4.60937 1.9007
head 19.9108 2.93399 2.09525
rclavicle -4.57205e-015 -1.19271e-015
rhumerus -62.444 21.5041 -93.4271
rradius 43.0189
rwrist -0.671083
rhand -16.3085 -16.6874
rfingers 7.12502
rthumb 9.90252 -46.4345
lclavicle -4.57205e-015 -1.19271e-015
lhumerus -47.584 -4.18633 78.8741
lradius 26.7313
lwrist -22.316
lhand -27.0514 24.9761
lfingers 7.12502
lthumb -0.469715 54.9554
rfemur -23.1824 9.42573 31.3361
rtibia 5.63501
rfoot 4.1992 -22.4514
rtoes -11.8468
lfemur -31.009 -12.8755 -19.8672
ltibia 16.9763
lfoot -13.3892 12.0927
ltoes -32.6482
98
root -28.6432 16.2294 5.20447 -58.7438 87.0401 -70.7559
lowerback 9.55766 0.52166 3.89009
upperback -9.86804 1.78181 0.879382
thorax -16.4391 0.541885 -1.63305
lowerneck -16.8778 1.87788 0.69597
upperneck 44.2808 4.60769 1.69578
head 20.225 2.93354 2.00747
rclavicle -9.19379e-016 -2.14687e-014
rhumerus -63.7979 20.4095 -93.1291
rradius 42.2302
rwrist -1.60691
rhand -16.1673 -17.3913
rfingers 7.12502
rthumb 10.0388 -47.1319
lclavicle -9.19379e-016 -2.14687e-014
lhumerus -49.5141 -2.35492 77.9383
lradius 25.5165
lwrist -24.0583
lhand -26.1426 25.5701
lfingers 7.12502
lthumb 0.408041 55.5495
rfemur -24.1896 5.1071 32.9638
rtibia 11.8074
rfoot 2.07751 -15.604
rtoes -18.3481
lfemur -31.5428 -10.8602 -21.1981
ltibia 22.5065
lfoot -11.8944 6.69758
ltoes -28.6758
99
root -28.3996 15.8035 5.16671 -53.3821 86.7912 -63.5244
lowerback 10.4791 0.604927 4.1837
upperback -9.56838 1.95798 0.860618
thorax -16.6527 0.570903 -1.87709
lowerneck -16.9152 1.78896 0.872258
upperneck 44.6952 4.63469 1.36136
head 20.5517 2.94103 1.84535
rclavicle 3.14328e-015 -9.93923e-015
rhumerus -64.5356 19.2375 -92.4559
rradius 40.9866
rwrist -2.73623
rhand -16.5519 -18.6188
rfingers 7.12502
rthumb 9.66766 -48.3769
lclavicle 3.14328e-015 -9.93923e-015
lhumerus -51.2641 -0.459117 76.6331
lradius 24.8189
lwrist -25.4203
lhand -24.7825 25.9702
lfingers 7.12502
lthumb 1.72161 55.943
rfemur -24.6036 2.74277 33.8786
rtibia 18.0777
rfoot -2.63474 -11.689
rtoes -20.561
lfemur -31.3574 -9.70164 -22.4342
ltibia 28.0343
lfoot -12.058 1.11711
ltoes -24.6401
100
root -28.1691 15.4306 5.13361 -46.4251 86.4765 -54.4949
lowerback 11.5976 0.730044 4.27302
upperback -9.15385 2.15993 0.862312
thorax -16.8517 0.635127 -1.99751
lowerneck -16.8961 1.70409 1.06265
upperneck 45.0412 4.68229 0.968845
head 20.8229 2.95142 1.64612
rclavicle 5.36719e-015 2.04748e-014
rhumerus -64.6993 18.0793 -91.4504
rradius 39.3972
rwrist -3.70602
rhand -16.8209 -20.3178
rfingers 7.12502
rthumb 9.40817 -50.0879
lclavicle 5.36719e-015 2.04748e-014
lhumerus -52.7587 1.18757 75.264
lradius 24.4892
lwrist -26.1807
lhand -23.2514 26.2503
lfingers 7.12502
lthumb 3.20028 56.206
rfemur -24.6821 1.5521 34.3342
rtibia 24.1324
rfoot -7.5246 -9.71974
rtoes -21.4316
lfemur -30.7947 -9.1857 -23.5777
ltibia 33.3932
lfoot -13.387 -4.00621
ltoes -21.3257
